<?xml version="1.0" encoding="utf-8"?>
<!-- Generator: Adobe Illustrator 19.2.1, SVG Export Plug-In . SVG Version: 6.00 Build 0)  -->
<svg version="1.1" id="Capa_1" xmlns="http://www.w3.org/2000/svg" xmlns:xlink="http://www.w3.org/1999/xlink" x="0px" y="0px"
	 viewBox="0 0 59 59" style="enable-background:new 0 0 59 59;" xml:space="preserve">
<style type="text/css">
	.st0{fill:#FFFFFF;}
	.st1{fill:#FFFFFF;stroke:#FFFFFF;stroke-width:2;stroke-miterlimit:10;}
</style>
<path class="st0" d="M11.3,41.4c0.2,0.1,0.4,0.2,0.6,0.2c0.3,0,0.6-0.1,0.8-0.4c0.3-0.4,0.3-1.1-0.2-1.4c-0.8-0.6-1.6-1.3-2.3-2.1
	l-7.4-7.4l7.6-7.6c7.3-7.3,18-9.8,27.8-6.5c0.5,0.2,1.1-0.1,1.3-0.6c0.2-0.5-0.1-1.1-0.6-1.3c-10.6-3.5-22-0.9-29.9,7l-9,9l8.8,8.8
	C9.6,40,10.4,40.7,11.3,41.4z"/>
<path class="st0" d="M50.2,21.3c-1.3-1.3-2.8-2.6-4.4-3.6c-0.5-0.3-1.1-0.2-1.4,0.3c-0.3,0.5-0.2,1.1,0.3,1.4c1.5,1,2.8,2.1,4.1,3.4
	l7.4,7.4l-7.6,7.6c-7.4,7.4-18.5,9.9-28.4,6.4c-0.5-0.2-1.1,0.1-1.3,0.6c-0.2,0.5,0.1,1.1,0.6,1.3c3.2,1.1,6.5,1.7,9.8,1.7
	c7.6,0,15.1-3,20.7-8.5l9-9L50.2,21.3z"/>
<path class="st0" d="M30.5,41.8c-2.2,0-4.3-0.6-6.1-1.7c-0.5-0.3-1.1-0.1-1.4,0.3c-0.3,0.5-0.1,1.1,0.3,1.4c2.1,1.3,4.6,2,7.1,2
	C38,43.8,44,37.7,44,30.3c0-2.7-0.8-5.3-2.3-7.5c-0.3-0.5-0.9-0.6-1.4-0.3c-0.5,0.3-0.6,0.9-0.3,1.4c1.3,1.9,1.9,4.1,1.9,6.4
	C42,36.6,36.9,41.8,30.5,41.8z"/>
<path class="st0" d="M30.5,18.8c2.1,0,4.1,0.6,5.9,1.6c0.5,0.3,1.1,0.1,1.4-0.4c0.3-0.5,0.1-1.1-0.4-1.4c-2.1-1.2-4.5-1.9-6.9-1.9
	c-7.4,0-13.5,6.1-13.5,13.5c0,2.1,0.5,4.1,1.4,5.9c0.2,0.4,0.5,0.6,0.9,0.6c0.1,0,0.3,0,0.4-0.1c0.5-0.2,0.7-0.8,0.5-1.3
	c-0.8-1.6-1.2-3.3-1.2-5.1C19,23.9,24.2,18.8,30.5,18.8z"/>
<path class="st1" d="M54.6,5.6c-0.4-0.4-1-0.4-1.4,0L6.7,52.1c-0.4,0.4-0.4,1,0,1.4c0.2,0.2,0.5,0.3,0.7,0.3s0.5-0.1,0.7-0.3L54.6,7
	C55,6.6,55,6,54.6,5.6z"/>
</svg>
