<?xml version="1.0" encoding="utf-8"?>
<!-- Generator: Adobe Illustrator 19.2.1, SVG Export Plug-In . SVG Version: 6.00 Build 0)  -->
<svg version="1.1" id="Capa_1" xmlns="http://www.w3.org/2000/svg" xmlns:xlink="http://www.w3.org/1999/xlink" x="0px" y="0px"
	 viewBox="0 0 59.2 59.2" style="enable-background:new 0 0 59.2 59.2;" xml:space="preserve">
<style type="text/css">
	.st0{fill:#FFFFFF;}
</style>
<g>
	<path class="st0" d="M51.1,21.6C39.2,9.7,19.8,9.7,7.9,21.6L0,29.5l8.1,8.1c5.9,5.9,13.8,8.9,21.6,8.9s15.6-3,21.6-8.9l7.9-7.9
		L51.1,21.6z M49.8,36.2c-11.1,11.1-29.2,11.1-40.3,0l-6.7-6.7L9.4,23c11.1-11.1,29.2-11.1,40.3,0l6.7,6.7L49.8,36.2z"/>
	<path class="st0" d="M28.6,21.6c-3.9,0-7,3.1-7,7c0,0.6,0.4,1,1,1s1-0.4,1-1c0-2.8,2.2-5,5-5c0.6,0,1-0.4,1-1S29.1,21.6,28.6,21.6z
		"/>
	<path class="st0" d="M29.6,16.6c-7.2,0-13,5.8-13,13s5.8,13,13,13s13-5.8,13-13S36.7,16.6,29.6,16.6z M29.6,40.6
		c-6.1,0-11-4.9-11-11s4.9-11,11-11s11,4.9,11,11S35.6,40.6,29.6,40.6z"/>
</g>
</svg>
